<?xml version="1.0" encoding="UTF-8" standalone="no"?>
<svg
   version="1.1"
   width="841.88977pt"
   height="595.27557pt"
   id="svg1"
   viewBox="0 0 841.88977 595.27557"
   sodipodi:docname="Helsingin_Sanomat_Logo.cdr"
   xmlns:inkscape="http://www.inkscape.org/namespaces/inkscape"
   xmlns:sodipodi="http://sodipodi.sourceforge.net/DTD/sodipodi-0.dtd"
   xmlns="http://www.w3.org/2000/svg"
   xmlns:svg="http://www.w3.org/2000/svg">
  <defs
     id="defs1" />
  <sodipodi:namedview
     id="namedview1"
     pagecolor="#ffffff"
     bordercolor="#000000"
     borderopacity="0.25"
     inkscape:showpageshadow="2"
     inkscape:pageopacity="0.0"
     inkscape:pagecheckerboard="0"
     inkscape:deskcolor="#d1d1d1"
     inkscape:document-units="pt" />
  <path
     d="m 236.4993,363.8497 c 2.0789,-8.1533 5.4632,-16.9888 9.4629,-26.3508 3.956,-9.2761 8.5394,-19.0678 13.0082,-29.2278 8.9501,-20.3051 17.4433,-41.932 20.02,-63.8481 1.1664,-9.8572 -0.4119,-21.0132 -2.645,-31.0039 -2.2493,-10.0157 -5.1509,-18.7529 -6.5041,-23.6515 -2.8593,-10.3141 -0.0437,-18.0283 10.4164,-18.0283 l 38.9869,-0.1693 c 11.8678,0 11.4123,11.2828 8.9365,17.9847 -1.2674,3.4297 -4.3421,9.6336 -7.1427,16.6468 -2.776,6.9582 -5.2081,14.5128 -5.421,20.8029 -0.3725,12.2799 2.5333,21.0172 3.7718,24.0633 1.0108,2.5591 3.0611,3.9271 6.0746,3.9271 3.6734,0 39.9867,-0.6287 48.4498,-0.6287 7.8981,0 14.2716,-3.814 14.4555,-12.7616 0.2279,-9.7889 -5.309,-26.9932 -8.594,-36.2693 -0.7966,-2.2496 -2.3202,-5.3243 -3.8005,-8.6663 -1.5196,-3.3858 -3.0747,-7.1864 -3.8687,-10.7439 -1.6492,-7.4291 0.2566,-14.3589 11.9826,-14.3589 h 26.6797 c 9.2364,0 18.9669,4.8373 18.9669,25.7848 0,20.1469 -3.342,47.2957 -4.7826,88.4488 -1.4366,40.98 -0.4408,79.5847 1.3107,96.219 0.8691,8.3375 4.6956,18.1839 5.5659,25.9512 0.9235,8.467 -1.6642,15.3246 -13.9757,15.3246 l -39.8435,0.1582 c -6.1166,0 -9.4192,-2.6736 -10.6716,-6.6759 -1.1661,-3.6136 -0.5278,-8.0963 0.1009,-11.6266 0.1693,-0.9413 0.5417,-2.2768 1.0832,-3.9846 l 1.9057,-5.8357 c 1.4788,-4.4498 3.3599,-10.0877 5.1823,-16.5334 3.6558,-12.85 7.1427,-28.8567 7.1714,-45.1771 0.0286,-13.4887 -4.8223,-19.3244 -10.8423,-22.032 -3.1141,-1.378 -6.6733,-1.9917 -10.3578,-2.2482 -3.7145,-0.2673 -7.414,-0.1406 -10.6443,-0.1406 h -37.8573 c -7.2587,0 -19.1537,5.9763 -23.6336,26.5391 -2.4758,11.4412 -0.8988,22.8535 2.0067,33.0395 2.9015,10.2458 7.1574,19.0964 9.8314,25.2145 2.66,6.1029 5.5941,13.1473 5.7498,18.7389 0.1703,6.1892 -3.1431,10.5571 -11.8095,10.5571 l -38.7056,-0.0178 c -17.4036,0 -27.7478,-28.9114 -20.02,-59.4202 z M 582.3989,171.7393 c 16.8908,0 19.836,3.8701 19.2657,11.7275 l -1.6492,24.7152 c -0.8376,12.6511 -9.4303,13.8022 -17.8155,11.456 -4.1388,-1.1364 -8.4809,-3.1292 -12.2785,-5.0635 -3.7718,-1.9494 -7.1317,-3.8688 -9.3949,-4.9805 -4.4784,-2.1909 -15.5086,-7.0308 -26.636,-8.7809 -11.2828,-1.7802 -21.6706,-0.3152 -26.2936,8.8639 -4.6993,9.3048 -1.465,16.704 5.7895,23.3799 3.6422,3.3749 8.2502,6.4755 13.2607,9.4317 5.0239,2.9452 10.3728,5.7212 15.3819,8.3662 5.0636,2.6751 12.4096,6.3774 20.3636,11.3686 7.9979,5.0242 16.6206,11.3811 24.2039,19.4074 15.2277,16.0793 26.1816,38.7604 19.2807,70.3948 -13.7696,63.0215 -63.6463,71.6836 -78.0897,71.6836 h -48.8047 c -15.8088,0 -22.0524,-6.0485 -22.0524,-15.1118 0,-7.6977 1.0352,-23.7917 1.0352,-29.5129 0,-10.5706 5.2521,-14.7982 13.5638,-14.4734 7.6842,0.2713 18.1006,4.4141 29.2675,9.4779 22.9662,10.4451 57.9577,17.4909 66.7357,-9.549 4.3668,-13.449 -2.1798,-23.3374 -14.004,-31.8878 -5.934,-4.2698 -13.0615,-8.1397 -20.6025,-11.8245 -7.571,-3.6966 -15.4542,-7.2257 -22.7565,-10.7997 -29.6099,-14.5553 -56.033,-45.7038 -40.9893,-88.4338 14.9673,-42.4299 46.8987,-49.8575 65.0132,-49.8575 h 48.2054 z"
     style="fill:#000000;fill-rule:evenodd"
     id="path1" />
</svg>
